<svg width="30" height="32" viewBox="0 0 30 32" fill="none" xmlns="http://www.w3.org/2000/svg">
<path d="M0 14.1279V29.8034C0 31.0016 0.95 31.9501 2.15 31.9501H27.85C29.05 31.9501 30 31.0016 30 29.8034V14.1279H0Z" fill="#FFCE31"/>
<path d="M30 11.9814C30 10.7833 29.05 9.8348 27.85 9.8348H2.15C0.95 9.78488 0 10.7833 0 11.9814V14.1281H30V11.9814Z" fill="#FF8736"/>
<path d="M5.2 12.9795C6.82924 12.9795 8.15 12.4207 8.15 11.7314C8.15 11.0422 6.82924 10.4834 5.2 10.4834C3.57076 10.4834 2.25 11.0422 2.25 11.7314C2.25 12.4207 3.57076 12.9795 5.2 12.9795Z" fill="#3E4347"/>
<path d="M24.7996 12.9795C26.4288 12.9795 27.7496 12.4207 27.7496 11.7314C27.7496 11.0422 26.4288 10.4834 24.7996 10.4834C23.1704 10.4834 21.8496 11.0422 21.8496 11.7314C21.8496 12.4207 23.1704 12.9795 24.7996 12.9795Z" fill="#3E4347"/>
<path d="M15.0008 0C8.55078 0 3.30078 5.29173 3.30078 11.7317C3.30078 12.131 4.10078 12.4306 5.20078 12.4306V11.7317C5.60078 6.24025 9.85078 1.89704 15.0008 1.89704C20.2008 1.89704 24.4508 6.24025 24.8008 11.7317V12.4306C25.9008 12.4306 26.7008 12.131 26.7008 11.7317C26.7008 5.29173 21.4508 0 15.0008 0Z" fill="#DFE9EF"/>
<path d="M24.7992 11.732C24.4492 6.29048 20.1992 1.94727 14.9992 1.94727C9.79922 1.94727 5.54922 6.29048 5.19922 11.7819V12.4808C6.29922 12.4808 7.29922 12.1813 7.29922 11.7819C7.24922 8.18752 10.2492 3.99407 14.9992 3.99407C19.7492 3.99407 22.7492 8.18752 22.7492 11.732C22.7492 12.1314 23.7492 12.4309 24.8492 12.4309L24.7992 11.732Z" fill="#B0BDC6"/>
<path d="M17.2992 28.156L16.3492 22.0156C16.8992 21.6162 17.2992 20.9173 17.2992 20.1685C17.2992 18.9204 16.2992 17.8721 14.9992 17.8721C13.6992 17.8721 12.6992 18.9204 12.6992 20.1685C12.6992 20.9173 13.0492 21.6162 13.6492 22.0156L12.6992 28.156H17.2992Z" fill="#3E4347"/>
<path d="M20.5992 13.6287V17.7223L21.7492 18.8206V20.7176L20.5992 21.8159V24.312L21.7492 25.4103V27.3073L20.5992 28.4056V30.103L22.9492 32L25.2992 30.103V13.6287C28.0492 12.6802 29.9992 10.0842 29.9992 6.98908C29.9992 3.14509 26.8492 0 22.9492 0C19.0492 0 15.9492 3.14509 15.9492 7.039C15.9492 10.0842 17.8992 12.6802 20.5992 13.6287ZM25.2992 4.69267C25.2992 5.99064 24.2492 6.98908 22.9992 6.98908C21.6992 6.98908 20.6992 5.94072 20.6992 4.69267C20.6992 3.3947 21.7492 2.39626 22.9992 2.39626C24.2492 2.39626 25.2992 3.44462 25.2992 4.69267Z" fill="#42ADE2"/>
</svg>
