<svg width="27" height="27" viewBox="0 0 27 27" fill="none" xmlns="http://www.w3.org/2000/svg">
<path d="M13.3333 0C20.6973 0 26.6667 5.96933 26.6667 13.3333C26.6667 20.6973 20.6973 26.6667 13.3333 26.6667C5.96933 26.6667 0 20.6973 0 13.3333C0 5.96933 5.96933 0 13.3333 0Z" fill="url(#paint0_linear_336_3534)"/>
<path d="M18.04 8.62667L17.928 8.52934C17.7581 8.40375 17.5528 8.3352 17.3415 8.33353C17.1303 8.33185 16.9239 8.39713 16.752 8.52001L16.6267 8.62667L13.3333 11.9187L10.04 8.62534L9.92801 8.52934C9.75811 8.40375 9.5528 8.3352 9.34152 8.33353C9.13025 8.33185 8.92388 8.39713 8.75201 8.52001L8.62667 8.62667L8.52934 8.73867C8.40375 8.90857 8.3352 9.11389 8.33353 9.32516C8.33185 9.53643 8.39713 9.7428 8.52001 9.91467L8.62667 10.04L11.9187 13.3333L8.62534 16.6267L8.52934 16.7387C8.40375 16.9086 8.3352 17.1139 8.33353 17.3252C8.33185 17.5364 8.39713 17.7428 8.52001 17.9147L8.62667 18.04L8.73867 18.1373C8.90857 18.2629 9.11389 18.3315 9.32516 18.3332C9.53643 18.3348 9.7428 18.2695 9.91467 18.1467L10.04 18.04L13.3333 14.748L16.6267 18.0413L16.7387 18.1373C16.9086 18.2629 17.1139 18.3315 17.3252 18.3332C17.5364 18.3348 17.7428 18.2695 17.9147 18.1467L18.04 18.04L18.1373 17.928C18.2629 17.7581 18.3315 17.5528 18.3332 17.3415C18.3348 17.1303 18.2695 16.9239 18.1467 16.752L18.04 16.6267L14.748 13.3333L18.0413 10.04L18.1373 9.92801C18.2629 9.75811 18.3315 9.5528 18.3332 9.34152C18.3348 9.13025 18.2695 8.92388 18.1467 8.75201L18.04 8.62667Z" fill="url(#paint1_linear_336_3534)"/>
<defs>
<linearGradient id="paint0_linear_336_3534" x1="4.16667" y1="1.66667" x2="21.6667" y2="27.5" gradientUnits="userSpaceOnUse">
<stop stop-color="#F83F54"/>
<stop offset="1" stop-color="#CA2134"/>
</linearGradient>
<linearGradient id="paint1_linear_336_3534" x1="8.91334" y1="13.776" x2="14.1213" y2="19.1893" gradientUnits="userSpaceOnUse">
<stop stop-color="#FDFDFD"/>
<stop offset="1" stop-color="#FECBE6"/>
</linearGradient>
</defs>
</svg>
