<svg width="20" height="19" viewBox="0 0 20 19" fill="none" xmlns="http://www.w3.org/2000/svg">
<g filter="url(#filter0_i_360_2200)">
<path d="M10 19C15.5229 19 20 14.7467 20 9.5C20 4.25329 15.5229 0 10 0C4.47714 0 0 4.25329 0 9.5C0 14.7467 4.47714 19 10 19Z" fill="url(#paint0_radial_360_2200)"/>
<path d="M10 19C15.5229 19 20 14.7467 20 9.5C20 4.25329 15.5229 0 10 0C4.47714 0 0 4.25329 0 9.5C0 14.7467 4.47714 19 10 19Z" fill="url(#paint1_radial_360_2200)"/>
</g>
<g filter="url(#filter1_f_360_2200)">
<path d="M12.7213 0.462891L11.7348 1.34503C11.606 1.46039 11.4355 1.52449 11.2584 1.52418C11.0275 1.52417 10.8032 1.45137 10.6205 1.31721L10.3534 1.1211C10.2003 0.975066 9.99386 0.890728 9.77698 0.885641H8.87841C8.75198 0.885641 8.55055 0.946712 8.38912 1.03357L7.53912 1.48414C7.48209 1.51122 7.43373 1.55231 7.39907 1.60314C7.3644 1.65398 7.34469 1.7127 7.34198 1.77321C7.34555 1.9571 7.34555 2.05685 7.34555 2.16203C7.34555 2.26721 7.34555 2.3785 7.34912 2.58682C7.34912 2.79514 7.56626 2.90371 7.73484 2.89693C7.91126 2.88336 8.05126 2.71032 8.05126 2.54203C8.05126 1.87025 8.24555 1.85125 8.38269 1.83768L8.38912 1.837C8.80769 1.79425 8.80483 2.198 8.78341 2.64382C8.77777 2.74326 8.77443 2.84281 8.77341 2.94239C8.77341 3.33189 8.49912 3.60061 8.08484 3.60061H6.97484C6.77269 3.59721 6.56055 3.50968 6.35198 3.42418C6.22595 3.36888 6.09584 3.32239 5.96269 3.28507C5.66769 3.21789 5.26769 3.20228 5.26769 3.73293V3.94125C5.26769 4.0695 5.17555 4.15703 5.00198 4.21946C4.78984 4.29682 4.55769 4.46782 4.55769 4.71686V5.47821C4.55769 5.71368 4.76126 5.90843 5.01483 5.90843H5.42198C5.75983 5.90843 5.82198 5.52775 5.86484 5.26243L5.87912 5.18032C5.87912 5.05275 5.98412 4.94485 6.12483 4.94485H6.80626C6.86912 4.94485 7.19198 4.95164 7.44555 5.15318L7.75484 5.38186C7.91626 5.53657 8.12698 5.61732 8.35198 5.61732H8.45055C8.52871 5.61844 8.60586 5.6005 8.67464 5.56521C8.74342 5.52993 8.80152 5.47848 8.84341 5.41578L9.27912 4.79761C9.31981 4.73915 9.37523 4.69127 9.44035 4.65833C9.50546 4.62538 9.57821 4.60841 9.65198 4.60896H9.91198C10.0241 4.60896 10.1155 4.6965 10.1155 4.80371V5.12128C10.1155 5.4945 10.5013 5.61664 10.7198 5.61664C11.1627 5.61664 11.5277 5.96 11.5277 6.38343C11.5275 6.43402 11.5131 6.48365 11.486 6.52721C11.4589 6.57077 11.4201 6.60669 11.3735 6.63129C11.327 6.65588 11.2744 6.66826 11.2211 6.66716C11.1679 6.66605 11.1159 6.6515 11.0705 6.625C10.6991 6.40989 10.0663 6.24228 9.74983 6.31625C9.44126 6.38343 8.76626 6.96768 8.76626 6.96768C8.76626 6.96768 7.97269 7.14275 7.99341 6.75257V6.5646C8.00055 6.38343 7.81769 6.30268 7.65626 6.30268H6.92555C6.70769 6.30268 6.49698 6.38343 6.34269 6.53135L6.11769 6.74646C6.04236 6.81893 5.9526 6.87641 5.85363 6.91556C5.75466 6.95471 5.64847 6.97473 5.54126 6.97446H4.79626C4.67456 6.97136 4.55352 6.99253 4.44095 7.03659C4.32838 7.08065 4.22678 7.14663 4.14269 7.23028L3.39055 7.98961C3.17778 8.20935 3.05996 8.49718 3.06055 8.79575V9.27278C3.06055 9.87128 3.84055 11.0072 4.46555 11.0072H6.47483C7.12841 11.0072 7.65555 11.5107 7.65555 12.1357V13.292C7.65555 13.5335 7.86626 13.7351 8.11983 13.7351H8.36484C8.51269 13.7351 8.71626 13.8301 8.71626 14.206V15.6235C8.71626 16.0198 9.05412 16.3496 9.47555 16.3496H9.81984C10.0234 16.3496 10.2127 16.275 10.3534 16.1338L11.3848 15.1397C11.5164 15.0129 11.5903 14.8421 11.5905 14.664V13.4596C11.5977 13.2384 11.7863 12.9751 12.0184 12.9751C12.1613 12.9751 12.2955 12.9072 12.3755 12.7952L13.5998 11.0832C13.6699 10.9496 13.7059 10.8022 13.7048 10.653V10.4114C13.7032 10.3585 13.6818 10.3078 13.6445 10.2685C13.6072 10.2291 13.5565 10.2035 13.5013 10.1963C12.7048 10.0382 11.5834 9.49196 11.5834 8.81882V8.59489C11.5834 7.65303 12.387 7.65303 12.5905 7.65371H12.5948C12.792 7.65371 12.9463 7.80775 12.9463 7.98961V8.56096C12.9463 8.80253 13.2627 9.09975 13.7148 8.90364L14.4348 8.56096C14.7927 8.38589 14.8884 8.02828 14.6134 7.71614C14.3563 7.42436 14.2755 6.93171 14.8198 6.93171H15.8127C16.7113 6.93171 17.2041 8.22982 17.2041 9.03596V9.399C17.2041 9.513 17.3027 9.60732 17.422 9.60732H17.6606C17.7358 9.607 17.8097 9.58906 17.8759 9.55509C17.942 9.52112 17.9984 9.47217 18.0398 9.41257L19.6448 7.32596C19.225 5.70606 18.3645 4.2194 17.1495 3.0149C15.9345 1.81039 14.4077 0.930339 12.722 0.462891" fill="url(#paint2_linear_360_2200)"/>
</g>
<g filter="url(#filter2_ii_360_2200)">
<path d="M12.7916 1.35742L11.8044 2.23956C11.6757 2.35476 11.5055 2.41885 11.3287 2.41871C11.0978 2.4187 10.8735 2.34591 10.6909 2.21174L10.4237 2.01564C10.2706 1.8696 10.0642 1.78526 9.84729 1.78017H8.94801C8.82158 1.78017 8.62015 1.84124 8.45872 1.9281L7.608 2.37867C7.55097 2.40575 7.50262 2.44684 7.46795 2.49767C7.43328 2.54851 7.41357 2.60723 7.41086 2.66774C7.41443 2.85231 7.41443 2.95139 7.41443 3.05656C7.41443 3.16174 7.41443 3.27303 7.418 3.48135C7.418 3.68967 7.63586 3.79824 7.80443 3.79214C7.98015 3.77856 8.12086 3.60485 8.12086 3.43656C8.12086 2.76478 8.31443 2.74578 8.45229 2.73221L8.45872 2.73153C8.87658 2.68946 8.87443 3.09253 8.85229 3.53835C8.848 3.6381 8.843 3.73989 8.843 3.83692C8.843 4.2271 8.56872 4.49514 8.15443 4.49514H7.043C6.84158 4.49174 6.62872 4.40421 6.42015 4.31871C6.29435 4.26345 6.16448 4.21695 6.03158 4.1796C5.73658 4.11242 5.33586 4.09682 5.33586 4.62746V4.83578C5.33586 4.96403 5.24443 5.05156 5.07015 5.11399C4.85872 5.19135 4.62658 5.36235 4.62658 5.61139V6.37274C4.62658 6.60821 4.83015 6.80296 5.08372 6.80296H5.49086C5.82872 6.80296 5.89086 6.42296 5.93372 6.15696L5.94729 6.07553C5.94729 5.94728 6.053 5.83939 6.193 5.83939H6.87515C6.938 5.83939 7.26086 5.84617 7.51443 6.04839L7.823 6.27639C7.98515 6.4311 8.19586 6.51185 8.42086 6.51185H8.51872C8.597 6.51308 8.67429 6.4952 8.74321 6.45991C8.81212 6.42462 8.87034 6.37311 8.91229 6.31032L9.348 5.69214C9.38863 5.63377 9.44394 5.58596 9.50892 5.55302C9.5739 5.52008 9.6465 5.50306 9.72015 5.50349H9.98015C10.093 5.50349 10.1844 5.59103 10.1844 5.69892V6.01582C10.1844 6.38903 10.5701 6.51117 10.788 6.51117C11.2309 6.51117 11.5966 6.85453 11.5966 7.27796C11.5964 7.32855 11.582 7.37818 11.5549 7.42174C11.5278 7.4653 11.489 7.50122 11.4424 7.52582C11.3959 7.55041 11.3433 7.5628 11.29 7.56169C11.2368 7.56058 11.1848 7.54603 11.1394 7.51953C10.7673 7.3051 10.1351 7.13681 9.81872 7.21078C9.50943 7.27796 8.83515 7.86221 8.83515 7.86221C8.83515 7.86221 8.04086 8.03728 8.06229 7.64778V7.45914C8.06943 7.27796 7.88658 7.19721 7.72515 7.19721H6.99443C6.77658 7.19721 6.56586 7.27796 6.41086 7.42589L6.18586 7.64099C6.11062 7.71338 6.02096 7.77082 5.92212 7.80996C5.82328 7.8491 5.71723 7.86917 5.61015 7.86899H4.86586C4.74416 7.8659 4.62312 7.88706 4.51055 7.93112C4.39798 7.97518 4.29637 8.04117 4.21229 8.12481L3.46086 8.88414C3.2481 9.10388 3.13027 9.39171 3.13086 9.69028V10.168C3.13086 10.7651 3.91015 11.9017 4.53586 11.9017H6.54515C7.19872 11.9017 7.72586 12.4052 7.72586 13.0309V14.1865C7.72586 14.4287 7.93658 14.6303 8.18943 14.6303H8.43515C8.583 14.6303 8.78658 14.7239 8.78658 15.1005V16.5181C8.78658 16.9144 9.12372 17.2441 9.54515 17.2441H9.88943C10.0937 17.2441 10.283 17.1695 10.4237 17.0284L11.4551 16.0349C11.5867 15.9079 11.6603 15.7368 11.6601 15.5586V14.3541C11.6673 14.1329 11.8566 13.8696 12.0887 13.8696C12.2316 13.8696 12.3651 13.8017 12.4459 13.6898L13.6694 11.9777C13.7401 11.8434 13.7751 11.6955 13.7751 11.5475V11.306C13.7735 11.253 13.7521 11.2024 13.7148 11.163C13.6776 11.1236 13.6268 11.098 13.5716 11.0909C12.7744 10.9327 11.653 10.3865 11.653 9.71335V9.48942C11.653 8.54756 12.4573 8.54824 12.6609 8.54824H12.6651C12.8616 8.54824 13.0166 8.70228 13.0166 8.88414V9.45549C13.0166 9.69707 13.333 9.99428 13.7851 9.79817L14.5044 9.45549C14.863 9.28042 14.958 8.92281 14.683 8.61067C14.4266 8.31889 14.3459 7.82624 14.8901 7.82624H15.883C16.7816 7.82624 17.2744 9.12435 17.2744 9.93049V10.2935C17.2744 10.4082 17.3723 10.5019 17.4923 10.5019H17.7309C17.8061 10.5015 17.88 10.4836 17.9462 10.4496C18.0124 10.4157 18.0687 10.3667 18.1101 10.3071L19.7151 8.22049C19.2953 6.60052 18.4347 5.1138 17.2195 3.90929C16.0044 2.70478 14.4774 1.82477 12.7916 1.35742Z" fill="url(#paint3_radial_360_2200)"/>
</g>
<g filter="url(#filter3_f_360_2200)">
<path d="M14.3586 13.2765C14.3586 13.1022 14.2099 12.9609 14.0265 12.9609C13.843 12.9609 13.6943 13.1022 13.6943 13.2765V13.9388C13.6943 14.113 13.843 14.2543 14.0265 14.2543C14.2099 14.2543 14.3586 14.113 14.3586 13.9388V13.2765Z" fill="#1C51A0"/>
</g>
<g filter="url(#filter4_ii_360_2200)">
<path d="M14.4529 13.2479C14.4529 13.0635 14.2955 12.9141 14.1014 12.9141C13.9073 12.9141 13.75 13.0635 13.75 13.2479V13.879C13.75 14.0634 13.9073 14.2128 14.1014 14.2128C14.2955 14.2128 14.4529 14.0634 14.4529 13.879V13.2479Z" fill="url(#paint4_linear_360_2200)"/>
</g>
<defs>
<filter id="filter0_i_360_2200" x="0" y="-0.125" width="20.125" height="19.125" filterUnits="userSpaceOnUse" color-interpolation-filters="sRGB">
<feFlood flood-opacity="0" result="BackgroundImageFix"/>
<feBlend mode="normal" in="SourceGraphic" in2="BackgroundImageFix" result="shape"/>
<feColorMatrix in="SourceAlpha" type="matrix" values="0 0 0 0 0 0 0 0 0 0 0 0 0 0 0 0 0 0 127 0" result="hardAlpha"/>
<feOffset dx="0.125" dy="-0.125"/>
<feGaussianBlur stdDeviation="0.5"/>
<feComposite in2="hardAlpha" operator="arithmetic" k2="-1" k3="1"/>
<feColorMatrix type="matrix" values="0 0 0 0 0.388235 0 0 0 0 0.537255 0 0 0 0 0.694118 0 0 0 1 0"/>
<feBlend mode="normal" in2="shape" result="effect1_innerShadow_360_2200"/>
</filter>
<filter id="filter1_f_360_2200" x="3.01055" y="0.412891" width="16.684" height="15.9867" filterUnits="userSpaceOnUse" color-interpolation-filters="sRGB">
<feFlood flood-opacity="0" result="BackgroundImageFix"/>
<feBlend mode="normal" in="SourceGraphic" in2="BackgroundImageFix" result="shape"/>
<feGaussianBlur stdDeviation="0.025" result="effect1_foregroundBlur_360_2200"/>
</filter>
<filter id="filter2_ii_360_2200" x="3.08086" y="1.30742" width="16.684" height="15.9367" filterUnits="userSpaceOnUse" color-interpolation-filters="sRGB">
<feFlood flood-opacity="0" result="BackgroundImageFix"/>
<feBlend mode="normal" in="SourceGraphic" in2="BackgroundImageFix" result="shape"/>
<feColorMatrix in="SourceAlpha" type="matrix" values="0 0 0 0 0 0 0 0 0 0 0 0 0 0 0 0 0 0 127 0" result="hardAlpha"/>
<feOffset dx="-0.05" dy="-0.05"/>
<feGaussianBlur stdDeviation="0.025"/>
<feComposite in2="hardAlpha" operator="arithmetic" k2="-1" k3="1"/>
<feColorMatrix type="matrix" values="0 0 0 0 0.403922 0 0 0 0 0.929412 0 0 0 0 0.690196 0 0 0 1 0"/>
<feBlend mode="normal" in2="shape" result="effect1_innerShadow_360_2200"/>
<feColorMatrix in="SourceAlpha" type="matrix" values="0 0 0 0 0 0 0 0 0 0 0 0 0 0 0 0 0 0 127 0" result="hardAlpha"/>
<feOffset dx="0.05" dy="-0.05"/>
<feGaussianBlur stdDeviation="0.025"/>
<feComposite in2="hardAlpha" operator="arithmetic" k2="-1" k3="1"/>
<feColorMatrix type="matrix" values="0 0 0 0 0.203922 0 0 0 0 0.592157 0 0 0 0 0.482353 0 0 0 1 0"/>
<feBlend mode="normal" in2="effect1_innerShadow_360_2200" result="effect2_innerShadow_360_2200"/>
</filter>
<filter id="filter3_f_360_2200" x="13.5943" y="12.8609" width="0.864063" height="1.49297" filterUnits="userSpaceOnUse" color-interpolation-filters="sRGB">
<feFlood flood-opacity="0" result="BackgroundImageFix"/>
<feBlend mode="normal" in="SourceGraphic" in2="BackgroundImageFix" result="shape"/>
<feGaussianBlur stdDeviation="0.05" result="effect1_foregroundBlur_360_2200"/>
</filter>
<filter id="filter4_ii_360_2200" x="13.725" y="12.8891" width="0.753125" height="1.34883" filterUnits="userSpaceOnUse" color-interpolation-filters="sRGB">
<feFlood flood-opacity="0" result="BackgroundImageFix"/>
<feBlend mode="normal" in="SourceGraphic" in2="BackgroundImageFix" result="shape"/>
<feColorMatrix in="SourceAlpha" type="matrix" values="0 0 0 0 0 0 0 0 0 0 0 0 0 0 0 0 0 0 127 0" result="hardAlpha"/>
<feOffset dx="-0.025" dy="0.025"/>
<feGaussianBlur stdDeviation="0.025"/>
<feComposite in2="hardAlpha" operator="arithmetic" k2="-1" k3="1"/>
<feColorMatrix type="matrix" values="0 0 0 0 0.423529 0 0 0 0 0.960784 0 0 0 0 0.721569 0 0 0 1 0"/>
<feBlend mode="normal" in2="shape" result="effect1_innerShadow_360_2200"/>
<feColorMatrix in="SourceAlpha" type="matrix" values="0 0 0 0 0 0 0 0 0 0 0 0 0 0 0 0 0 0 127 0" result="hardAlpha"/>
<feOffset dx="0.025" dy="-0.025"/>
<feGaussianBlur stdDeviation="0.05"/>
<feComposite in2="hardAlpha" operator="arithmetic" k2="-1" k3="1"/>
<feColorMatrix type="matrix" values="0 0 0 0 0.254902 0 0 0 0 0.568627 0 0 0 0 0.513726 0 0 0 1 0"/>
<feBlend mode="normal" in2="effect1_innerShadow_360_2200" result="effect2_innerShadow_360_2200"/>
</filter>
<radialGradient id="paint0_radial_360_2200" cx="0" cy="0" r="1" gradientUnits="userSpaceOnUse" gradientTransform="translate(14.8262 6.52681) rotate(123.409) scale(14.5619 16.8584)">
<stop stop-color="#63D8FF"/>
<stop offset="1" stop-color="#3488EF"/>
</radialGradient>
<radialGradient id="paint1_radial_360_2200" cx="0" cy="0" r="1" gradientUnits="userSpaceOnUse" gradientTransform="translate(16.9671 5.17071) rotate(139.207) scale(18.2069 23.9488)">
<stop offset="0.496" stop-color="#465DC2" stop-opacity="0"/>
<stop offset="1" stop-color="#465DC2"/>
</radialGradient>
<linearGradient id="paint2_linear_360_2200" x1="12.307" y1="2.81753" x2="7.16404" y2="13.2123" gradientUnits="userSpaceOnUse">
<stop stop-color="#40B9F0"/>
<stop offset="1" stop-color="#305CBD"/>
</linearGradient>
<radialGradient id="paint3_radial_360_2200" cx="0" cy="0" r="1" gradientUnits="userSpaceOnUse" gradientTransform="translate(15.8694 5.42207) rotate(135.237) scale(14.0767 12.9992)">
<stop offset="0.292" stop-color="#78FFB5"/>
<stop offset="1" stop-color="#409A79"/>
</radialGradient>
<linearGradient id="paint4_linear_360_2200" x1="13.75" y1="13.5635" x2="14.6057" y2="13.5635" gradientUnits="userSpaceOnUse">
<stop stop-color="#55CC9B"/>
<stop offset="1" stop-color="#53C999"/>
</linearGradient>
</defs>
</svg>
