<svg width="28" height="32" viewBox="0 0 28 32" fill="none" xmlns="http://www.w3.org/2000/svg">
<path d="M15.1069 1.34483C15.3294 0.857334 15.7444 0.719834 16.0894 0.704834C16.6144 0.679834 17.1644 1.04233 17.6819 1.46983C18.0494 1.88483 18.4894 2.20483 18.9994 2.42983C19.3519 2.55483 19.7019 2.57983 20.0569 2.56233C20.5569 2.53733 21.0644 2.42733 21.5669 2.40233L21.5944 2.39983L21.8219 2.37983C22.3969 2.35233 22.9394 2.48733 23.4544 2.78483C23.9269 3.21483 24.1344 3.74983 24.0694 4.39483C23.9594 4.92733 24.0544 5.41483 24.3519 5.85733C24.8644 6.21733 25.4019 6.53233 25.9669 6.79983C26.5519 7.11983 26.9194 7.60233 27.0794 8.24483C27.1369 8.92483 26.8219 9.35983 26.1419 9.54733C25.2569 9.76983 24.0669 9.76983 23.0644 10.5448C21.5994 11.7673 21.1394 12.9998 20.5019 13.1873C20.1894 12.8323 18.2394 11.3248 14.9694 10.6023C14.3844 8.58483 14.0294 3.71483 15.1069 1.34483Z" fill="#FCC21B"/>
<path d="M18.4082 10.1727C18.9832 9.0227 20.6207 7.0002 21.0132 7.4002C21.4007 7.8352 20.5082 10.0952 19.8807 11.2027C19.6582 10.9677 18.9407 10.4752 18.6282 10.3927" fill="#D19B15"/>
<path d="M21.3009 13.8551C20.9634 13.8551 20.6334 13.6826 20.4459 13.3726C18.7259 10.5426 14.8309 10.8401 14.7934 10.8451C14.2434 10.8901 13.7584 10.4851 13.7109 9.93763C13.6877 9.67427 13.7695 9.41241 13.9386 9.20916C14.1076 9.0059 14.3502 8.87774 14.6134 8.85263C14.8234 8.83263 19.7809 8.42513 22.1559 12.3376C22.4434 12.8101 22.2909 13.4251 21.8209 13.7101C21.6559 13.8076 21.4784 13.8551 21.3009 13.8551Z" fill="#8D6E63"/>
<path d="M22.0147 30.5175C17.7322 31.5725 11.7797 31.4975 7.52715 30.6575C3.54715 29.87 0.499654 27.5225 0.849654 22.9025C1.20465 18.2275 4.30215 13.825 8.56215 11.885C12.6847 10.0075 18.2172 9.09252 21.1322 13.3525C21.8572 14.4125 23.2422 16.765 23.3072 17.92C23.3122 18.0125 23.3172 18.095 23.3372 18.175C23.3422 18.465 23.4597 18.7575 23.7447 18.9725C25.5772 20.36 26.9122 22.2 27.1572 24.7225C27.4472 27.73 24.6022 29.88 22.0147 30.5175Z" fill="#FCC21B"/>
<path d="M10.65 21.5714L14.45 25.2857L10.65 29L4 22.5L10.65 16L12.3125 17.625L11.3625 18.5536L10.65 17.8571L5.9 22.5L10.65 27.1429L12.5613 25.2747L9.7 22.5L10.65 21.5714ZM16.35 16L12.55 19.7143L16.35 23.4286L17.3 22.5L14.4387 19.7253L16.35 17.8571L21.1 22.5L16.35 27.1429L15.6375 26.4464L14.6875 27.375L16.35 29L23 22.5L16.35 16Z" fill="black"/>
</svg>
