<svg width="30" height="28" viewBox="0 0 30 28" fill="none" xmlns="http://www.w3.org/2000/svg">
<path d="M28.1298 8.42768H2.27734L3.70984 3.86768H26.2223L28.1298 8.42768Z" fill="#37474F"/>
<path d="M29.7175 10.8301L27.02 4.25012C26.9482 4.04759 26.8155 3.87227 26.64 3.74827C26.4645 3.62427 26.2549 3.55766 26.04 3.55762H3.96503C3.52503 3.55762 3.13253 3.83512 2.98503 4.25012L0.28253 10.8301C0.258708 10.9004 0.251977 10.9754 0.262894 11.0489C0.273811 11.1223 0.302062 11.1921 0.345308 11.2524C0.388555 11.3128 0.445553 11.362 0.511586 11.3959C0.577618 11.4298 0.650785 11.4476 0.72503 11.4476H29.275C29.3493 11.4476 29.4224 11.4298 29.4885 11.3959C29.5545 11.362 29.6115 11.3128 29.6548 11.2524C29.698 11.1921 29.7262 11.1223 29.7372 11.0489C29.7481 10.9754 29.7414 10.9004 29.7175 10.8301ZM27.87 10.4526H2.13003C1.80253 10.4526 1.57253 10.1301 1.67753 9.82012L3.81253 4.89262C3.86374 4.74996 3.95773 4.62658 4.08167 4.53933C4.20561 4.45208 4.35346 4.40521 4.50503 4.40512H25.5C25.81 4.40512 26.0875 4.60012 26.1925 4.89262L28.3275 9.82012C28.3512 9.89248 28.3574 9.96941 28.3457 10.0446C28.3339 10.1198 28.3045 10.1912 28.2599 10.2529C28.2153 10.3146 28.1567 10.3648 28.0889 10.3995C28.0212 10.4343 27.9462 10.4524 27.87 10.4526Z" fill="#82AEC0"/>
<path d="M0.25 11.0276V27.3826C0.25 27.7251 0.525 28.0001 0.865 28.0001H29.1325C29.4725 28.0001 29.75 27.7251 29.75 27.3826V10.9751L0.25 11.0276Z" fill="#37474F"/>
<path d="M25.6834 11.0252V3.05266C25.6834 2.82266 25.4959 2.63516 25.2659 2.63516V1.05266C25.2659 0.882254 25.1982 0.718832 25.0777 0.59834C24.9572 0.477848 24.7938 0.410156 24.6234 0.410156H20.2884C20.118 0.410156 19.9545 0.477848 19.834 0.59834C19.7136 0.718832 19.6459 0.882254 19.6459 1.05266V1.49266C19.6459 2.12266 19.1334 2.63516 18.5034 2.63516H4.93086C4.59336 2.63516 4.31836 2.91016 4.31836 3.24766V11.0227H25.6834V11.0252Z" fill="#F3AB47"/>
<path opacity="0.75" d="M4.31836 3.86768H25.6859V5.17018H4.31836V3.86768Z" fill="#DE7340"/>
<path d="M27.0902 10.9874V5.21494C27.0902 5.03062 27.0169 4.85384 26.8866 4.7235C26.7563 4.59316 26.5795 4.51994 26.3952 4.51994H19.4727C19.3029 4.51994 19.1349 4.48651 18.978 4.42156C18.8212 4.3566 18.6787 4.2614 18.5587 4.14138C18.4387 4.02136 18.3435 3.87887 18.2785 3.72206C18.2136 3.56525 18.1802 3.39717 18.1802 3.22744V2.72994C18.1802 2.32744 17.8552 2.00244 17.4527 2.00244H12.5477C12.1452 2.00244 11.8202 2.32744 11.8202 2.72994V3.22744C11.8202 3.39717 11.7867 3.56525 11.7218 3.72206C11.6568 3.87887 11.5616 4.02136 11.4416 4.14138C11.3216 4.2614 11.1791 4.3566 11.0223 4.42156C10.8655 4.48651 10.6974 4.51994 10.5277 4.51994H3.60516C3.42083 4.51994 3.24405 4.59316 3.11372 4.7235C2.98338 4.85384 2.91016 5.03062 2.91016 5.21494V10.9874H27.0902Z" fill="#FFCA28"/>
<path d="M18.1798 3.22744V2.72994C18.1798 2.32744 17.8548 2.00244 17.4523 2.00244H12.5473C12.1448 2.00244 11.8198 2.32744 11.8198 2.72994V3.22744C11.8198 3.57023 11.6837 3.89899 11.4413 4.14138C11.1989 4.38377 10.8701 4.51994 10.5273 4.51994H19.4748C18.7598 4.51994 18.1798 3.93994 18.1798 3.22744Z" fill="#0288D1"/>
<path d="M2.16992 6.52246H27.0899V7.82496H2.16992V6.52246Z" fill="#F3AB47"/>
<path d="M28.3498 10.9873V7.94984C28.3498 7.74629 28.269 7.55107 28.125 7.40714C27.9811 7.2632 27.7859 7.18234 27.5823 7.18234H10.6223C9.83484 7.18234 9.19484 6.54234 9.19484 5.75484V5.20484C9.19484 4.76234 8.83484 4.40234 8.39234 4.40234H2.97484C2.53234 4.40234 2.17234 4.76234 2.17234 5.20484V7.18234C1.88484 7.18234 1.65234 7.41484 1.65234 7.70234V10.9848H28.3498V10.9873Z" fill="#FFE36C"/>
<path d="M9.19438 5.75484V5.20484C9.19438 4.76234 8.83438 4.40234 8.39188 4.40234H2.97438C2.53188 4.40234 2.17188 4.76234 2.17188 5.20484V7.18234H10.6244C10.4367 7.18267 10.2508 7.14599 10.0773 7.0744C9.90385 7.00281 9.74618 6.89771 9.61336 6.76512C9.48054 6.63253 9.37517 6.47506 9.30328 6.3017C9.23138 6.12835 9.19437 5.94252 9.19438 5.75484Z" fill="#F44336"/>
<path d="M28.35 9.81732C28.4125 10.3898 28.1975 10.4498 27.87 10.4498H2.13003C1.80253 10.4498 1.57753 10.4748 1.65003 9.87232L0.66253 9.90482L0.28253 10.8298C0.258708 10.9001 0.251977 10.9751 0.262894 11.0486C0.273811 11.122 0.302062 11.1918 0.345308 11.2521C0.388555 11.3125 0.445553 11.3617 0.511586 11.3956C0.577618 11.4296 0.650785 11.4473 0.72503 11.4473H29.275C29.3493 11.4473 29.4224 11.4296 29.4885 11.3956C29.5545 11.3617 29.6115 11.3125 29.6548 11.2521C29.698 11.1918 29.7262 11.122 29.7372 11.0486C29.7481 10.9751 29.7414 10.9001 29.7175 10.8298L29.28 9.75732L28.35 9.81732Z" fill="#82AEC0"/>
<path d="M10.623 17.6851H18.968V22.0351H10.623V17.6851Z" fill="#FAFAFA"/>
<path d="M18.2517 18.5952C18.2517 18.5952 17.9142 19.2727 17.9067 20.1627C17.8992 21.1802 18.3067 22.0752 18.3067 22.0752L11.2742 21.9977C11.2742 21.9977 11.7167 21.3127 11.7417 20.3352C11.7667 19.4102 11.3842 18.5952 11.3842 18.5952H18.2517ZM18.6867 17.5952H10.9917C10.5542 17.5952 10.1992 17.9502 10.1992 18.3877V22.2827C10.1992 22.7202 10.5542 23.0752 10.9917 23.0752H18.6867C19.1242 23.0752 19.4792 22.7202 19.4792 22.2827V18.3877C19.4788 18.1777 19.3951 17.9764 19.2466 17.8278C19.0981 17.6793 18.8968 17.5957 18.6867 17.5952Z" fill="#263238"/>
<path d="M18.4767 18.1377C18.4767 18.1377 18.0117 18.8652 18.0117 19.7552C18.0117 20.6452 18.4767 21.6152 18.4767 21.6152H11.1992C11.1992 21.6152 11.6467 20.7127 11.6467 19.8752C11.6467 19.0377 11.1992 18.1352 11.1992 18.1352H18.4767V18.1377ZM18.6867 17.1377H10.9917C10.5542 17.1377 10.1992 17.4927 10.1992 17.9302V21.8252C10.1992 22.2627 10.5542 22.6177 10.9917 22.6177H18.6867C19.1242 22.6177 19.4792 22.2627 19.4792 21.8252V17.9302C19.4788 17.7202 19.3951 17.5188 19.2466 17.3703C19.0981 17.2218 18.8968 17.1382 18.6867 17.1377Z" fill="#9E9E9E"/>
<path d="M10.9922 17.4824H14.0372" stroke="#C9E3E6" stroke-width="0.5" stroke-miterlimit="10" stroke-linecap="round"/>
</svg>
