<svg width="28" height="30" viewBox="0 0 28 30" fill="none" xmlns="http://www.w3.org/2000/svg">
<path d="M13.6355 0.209807L0.595524 6.93231C0.310524 7.09981 0.228024 7.34981 0.230524 7.71231L0.255524 8.16481L14.023 15.2248L27.758 8.27731C27.758 8.27731 27.773 8.20731 27.773 7.96231C27.773 7.96231 27.7605 7.63981 27.688 7.48981C27.608 7.31981 27.438 7.16731 27.328 7.07481C27.0355 6.83231 26.743 6.61731 26.2455 6.33731C19.113 2.30481 14.423 0.227307 14.423 0.227307C14.1205 0.114807 13.8705 0.0748072 13.6355 0.209807Z" fill="#DEA66C"/>
<path d="M0.434062 23.0402C1.19406 23.5427 2.58156 24.2027 3.98406 24.9627C7.24406 26.7277 11.3641 28.8727 13.4141 29.7152C13.6916 29.8302 13.8566 29.8852 14.0491 29.8952C14.1916 29.9027 14.4266 29.8077 14.4266 29.8077C14.4266 29.8077 14.0441 16.0102 14.0216 15.2227C13.9991 14.4527 13.6766 14.1977 13.3916 14.0127C12.9466 13.7277 11.9816 13.2827 11.9816 13.2827C11.9816 13.2827 8.60156 11.6027 5.22656 9.83271C3.62156 8.99021 2.26656 8.12771 0.809062 7.41771C0.541562 7.29021 0.226562 7.45021 0.226562 7.75021V22.7002C0.226562 22.8427 0.314062 22.9627 0.434062 23.0402Z" fill="#B38251"/>
<path d="M27.3959 23.1274L14.4559 29.7999C14.2484 29.9074 14.0009 29.7574 14.0009 29.5224L14.0234 15.2274C14.0234 15.0899 13.9809 14.7874 13.9384 14.6674C13.8209 14.3174 14.0759 14.1774 14.1909 14.1199L27.0259 7.50987C27.3659 7.33487 27.7734 7.58237 27.7734 7.96487V22.5124C27.7734 22.7699 27.6284 23.0074 27.3959 23.1274Z" fill="#966239"/>
<path opacity="0.5" d="M21.6155 10.8974C21.6155 10.8974 14.523 14.5249 14.408 14.8324C14.293 15.1374 19.973 12.4074 20.638 12.0649C21.3905 11.6774 27.3005 8.5174 27.3005 8.1699C27.303 7.8849 21.6155 10.8974 21.6155 10.8974Z" fill="#212121"/>
<g opacity="0.5">
<path d="M1.20312 22.2124C2.12563 22.6774 3.04062 23.1574 4.18062 23.7399V23.2949C3.04562 22.7149 2.12813 22.2374 1.20312 21.7674V22.2124ZM3.14562 22.4149C3.40562 22.5474 3.53562 22.6149 3.78063 22.7399C3.78313 21.9649 3.78312 21.5774 3.78562 20.8024C3.54062 20.6774 3.41313 20.6124 3.15563 20.4799C3.15063 21.2549 3.14812 21.6399 3.14562 22.4149ZM1.53062 21.5849C1.74562 21.6949 1.86563 21.7574 2.11063 21.8824L2.12312 19.9524C1.87562 19.8249 1.75562 19.7649 1.53812 19.6499C1.53562 20.4249 1.53312 20.8124 1.53062 21.5849Z" fill="#212121"/>
<path d="M2.73813 20.4976C3.33063 20.8001 3.64562 20.9626 4.16812 21.2276C3.90812 20.7551 3.76562 20.5151 3.48062 20.0301C3.18812 20.2201 3.03563 20.3126 2.73813 20.4976ZM1.20312 19.7101C1.64562 19.9401 1.94313 20.0926 2.52813 20.3926C2.23813 19.9051 2.09312 19.6626 1.82562 19.1851C1.55312 19.3826 1.42562 19.4851 1.20312 19.7101Z" fill="#212121"/>
</g>
<g opacity="0.5">
<path d="M5.95305 24.35C6.16055 24.4575 6.26805 24.515 6.47555 24.6225C6.46055 23.7025 6.45305 23.2425 6.43555 22.3225C6.23555 22.2175 6.13555 22.165 5.93555 22.0625C5.94305 22.9775 5.94555 23.435 5.95305 24.35Z" fill="#212121"/>
<path d="M5.19086 24.1874C5.95086 24.5874 6.54086 24.8874 7.27086 25.2774C7.26586 25.0149 7.06336 24.6974 6.78836 24.5499C6.35836 24.3224 6.11336 24.1974 5.67836 23.9699C5.39836 23.8274 5.19086 23.9299 5.19086 24.1874ZM6.63836 21.5899L6.95836 22.2674C6.85836 22.4799 6.80586 22.5874 6.70086 22.7974C6.79086 22.7899 6.83586 22.7874 6.92586 22.7799C7.04586 22.6199 7.10586 22.5399 7.22086 22.3799C7.11586 22.1324 7.06086 22.0074 6.95086 21.7599C7.25586 21.9274 7.40586 22.0124 7.68336 22.1749C7.68336 23.0699 7.09836 23.4649 6.21836 23.0049C5.33836 22.5474 4.75586 21.5249 4.75586 20.6274C5.41086 20.9549 5.85086 21.1699 6.63836 21.5899Z" fill="#212121"/>
</g>
<path d="M23.1852 9.37258C23.0602 9.28008 9.63766 2.26758 9.63766 2.26758L5.47266 4.42008L19.2352 11.5176L19.2427 11.5251L23.2702 9.46258C23.2702 9.46258 23.2627 9.44258 23.2402 9.41758C23.2227 9.40258 23.1927 9.38008 23.1852 9.37258Z" fill="#FFE0B2"/>
<path d="M23.2499 9.43262C20.9699 10.5551 19.2349 11.5176 19.2349 11.5176C19.2924 11.5751 19.2949 11.6501 19.2949 11.6876C19.2874 11.9776 19.2824 12.2076 19.2749 12.4951C19.2399 13.9826 19.2199 15.4726 19.1699 16.9601C19.3374 16.8601 19.5399 17.0801 19.6924 16.9601C19.9274 16.7751 20.4274 15.9601 20.5024 15.9351C20.6024 15.9026 20.7099 15.9276 20.8124 15.9226C21.2624 15.8976 22.2699 14.9801 22.4849 14.9376C22.6924 14.8976 23.3774 15.0301 23.3774 15.0301C23.3774 15.0301 23.3299 10.4926 23.3124 9.73012C23.3074 9.46012 23.2499 9.43262 23.2499 9.43262Z" fill="#BF9F85"/>
</svg>
