<svg width="18" height="18" viewBox="0 0 18 18" fill="none" xmlns="http://www.w3.org/2000/svg">
<path opacity="0.1" d="M14.8496 8.3623C14.8496 11.9867 11.9115 14.9248 8.28711 14.9248C4.66274 14.9248 1.72461 11.9867 1.72461 8.3623C1.72461 4.73794 4.66274 1.7998 8.28711 1.7998C11.9115 1.7998 14.8496 4.73794 14.8496 8.3623Z" fill="#99A1B7"/>
<path fill-rule="evenodd" clip-rule="evenodd" d="M13.5053 12.6032C14.4719 11.4353 15.0527 9.93663 15.0527 8.30225C15.0527 4.57432 12.0307 1.55225 8.30273 1.55225C4.57481 1.55225 1.55273 4.57432 1.55273 8.30225C1.55273 12.0302 4.57481 15.0522 8.30273 15.0522C9.93714 15.0522 11.4359 14.4714 12.6037 13.5048L15.352 16.253C15.6009 16.502 16.0046 16.502 16.2535 16.253C16.5025 16.004 16.5025 15.6004 16.2535 15.3514L13.5053 12.6032ZM8.30273 13.8012C5.26574 13.8012 2.80376 11.3392 2.80376 8.30225C2.80376 5.26525 5.26574 2.80327 8.30273 2.80327C11.3397 2.80327 13.8017 5.26525 13.8017 8.30225C13.8017 11.3392 11.3397 13.8012 8.30273 13.8012Z" fill="#99A1B7"/>
</svg>
