<svg width="36" height="32" viewBox="0 0 36 32" fill="none" xmlns="http://www.w3.org/2000/svg">
<g filter="url(#filter0_d_301_1099)">
<path d="M5.33398 8.6665H30.6673V21.3332H5.33398V8.6665Z" fill="#CFD8DC"/>
<path d="M5.33398 21.3335H30.6673V24.0002H5.33398V21.3335Z" fill="#B0BEC5"/>
<path d="M20 12H28V24H20V12Z" fill="black"/>
<path d="M8 12H17.3333V19.3333H8V12Z" fill="#E3F2FD"/>
<path d="M8.66602 12.6665H16.666V18.6665H8.66602V12.6665Z" fill="#1E88E5"/>
<path d="M26.3333 18.3335C26.1333 18.3335 26 18.4668 26 18.6668V20.0002C26 20.2002 26.1333 20.3335 26.3333 20.3335C26.5333 20.3335 26.6667 20.2002 26.6667 20.0002V18.6668C26.6667 18.4668 26.5333 18.3335 26.3333 18.3335Z" fill="#90A4AE"/>
<path d="M18 10.6665C19.1046 10.6665 20 9.77107 20 8.6665C20 7.56193 19.1046 6.6665 18 6.6665C16.8954 6.6665 16 7.56193 16 8.6665C16 9.77107 16.8954 10.6665 18 10.6665Z" fill="#8B2F49"/>
<path d="M26 10.6665C27.1046 10.6665 28 9.77107 28 8.6665C28 7.56193 27.1046 6.6665 26 6.6665C24.8954 6.6665 24 7.56193 24 8.6665C24 9.77107 24.8954 10.6665 26 10.6665Z" fill="#8B2F49"/>
<path d="M10 10.6665C11.1046 10.6665 12 9.77107 12 8.6665C12 7.56193 11.1046 6.6665 10 6.6665C8.89543 6.6665 8 7.56193 8 8.6665C8 9.77107 8.89543 10.6665 10 10.6665Z" fill="#8B2F49"/>
<path d="M28.6667 0H7.33333C6.6 0 6 0.6 6 1.33333V3.33333H30V1.33333C30 0.6 29.4 0 28.6667 0ZM16 3.33333H20V8.66667H16V3.33333ZM26.6667 3.33333H23.3333L24 8.66667H28L26.6667 3.33333ZM9.33333 3.33333H12.6667L12 8.66667H8L9.33333 3.33333Z" fill="#B34244"/>
<path d="M22 10.6665C23.1046 10.6665 24 9.77107 24 8.6665C24 7.56193 23.1046 6.6665 22 6.6665C20.8954 6.6665 20 7.56193 20 8.6665C20 9.77107 20.8954 10.6665 22 10.6665Z" fill="#FFA000"/>
<path d="M32 8.6665C32 9.79984 31.1333 10.6665 30 10.6665C28.8667 10.6665 28 9.79984 28 8.6665C28 7.53317 28.8667 6.6665 30 6.6665L32 8.6665Z" fill="#FFA000"/>
<path d="M14 10.6665C15.1046 10.6665 16 9.77107 16 8.6665C16 7.56193 15.1046 6.6665 14 6.6665C12.8954 6.6665 12 7.56193 12 8.6665C12 9.77107 12.8954 10.6665 14 10.6665Z" fill="#FFA000"/>
<path d="M4 8.6665C4 9.79984 4.86667 10.6665 6 10.6665C7.13333 10.6665 8 9.79984 8 8.6665C8 7.53317 7.13333 6.6665 6 6.6665L4 8.6665Z" fill="#FFA000"/>
<path d="M23.3333 3.3335H20V8.66683H24L23.3333 3.3335ZM30 3.3335H26.6667L28 8.66683H32L30 3.3335ZM12.6667 3.3335H16V8.66683H12L12.6667 3.3335ZM6 3.3335H9.33333L8 8.66683H4L6 3.3335Z" fill="#FFC107"/>
</g>
<defs>
<filter id="filter0_d_301_1099" x="0" y="0" width="36" height="32" filterUnits="userSpaceOnUse" color-interpolation-filters="sRGB">
<feFlood flood-opacity="0" result="BackgroundImageFix"/>
<feColorMatrix in="SourceAlpha" type="matrix" values="0 0 0 0 0 0 0 0 0 0 0 0 0 0 0 0 0 0 127 0" result="hardAlpha"/>
<feOffset dy="4"/>
<feGaussianBlur stdDeviation="2"/>
<feComposite in2="hardAlpha" operator="out"/>
<feColorMatrix type="matrix" values="0 0 0 0 0 0 0 0 0 0 0 0 0 0 0 0 0 0 0.25 0"/>
<feBlend mode="normal" in2="BackgroundImageFix" result="effect1_dropShadow_301_1099"/>
<feBlend mode="normal" in="SourceGraphic" in2="effect1_dropShadow_301_1099" result="shape"/>
</filter>
</defs>
</svg>
